<?xml version="1.0" encoding="UTF-8" standalone="no"?>
<svg xmlns="http://www.w3.org/2000/svg" version="1.1" xmlns:xlink="http://www.w3.org/1999/xlink" xmlns:svgjs="http://svgjs.dev/svgjs" width="308" height="304" viewBox="0 0 2000 1500"><rect width="2000" height="1500" fill="#000000"></rect><g transform="matrix(0.75,0,0,0.75,249.090909090909,282.7536437246963)"><svg viewBox="0 0 396 247" data-background-color="#000000" preserveAspectRatio="xMidYMid meet" height="1247" width="2000" xmlns="http://www.w3.org/2000/svg" xmlns:xlink="http://www.w3.org/1999/xlink"><g id="tight-bounds" transform="matrix(1,0,0,1,0.2400000000000091,-0.09999999999999432)"><svg viewBox="0 0 395.52 247.2" height="247.2" width="395.52"><rect width="395.52" height="247.2" fill="url(#21a1c28b-3c3a-4990-8f42-7265131ff65d)" mask="url(#fb58ab3d-d492-41eb-85ce-b3721a8009d5)" data-fill-palette-color="tertiary"></rect><g><svg></svg></g><g><svg viewBox="0 0 395.52 247.2" height="247.2" width="395.52"><mask id="b8c603d1-6612-4495-9755-ec2623c356f4"><rect width="395.52" height="247.2" fill="white"></rect><g transform="matrix(1,0,0,1,26.040916030534362,37.08)" id="clone"><svg viewBox="0 0 343.43816793893126 173.04" height="173.04" width="343.43816793893126"><g><svg viewBox="0 0 343.43816793893126 173.04" height="173.04" width="343.43816793893126"><g><svg viewBox="0 0 343.43816793893126 173.04" height="173.04" width="343.43816793893126"><g><svg viewBox="0 0 343.43816793893126 173.04" height="173.04" width="343.43816793893126"><g id="SvgjsG1011"><svg viewBox="0 0 343.43816793893126 173.04" height="173.04" width="343.43816793893126" id="SvgjsSvg1010"><g><svg viewBox="0 0 343.43816793893126 173.04" height="173.04" width="343.43816793893126"><g transform="matrix(1,0,0,1,0,0)"><svg width="343.43816793893126" viewBox="1.5999999999999996 -37.3 79 40.3" height="173.04" data-palette-color="url(#24cf1022-3d58-4c0f-aa60-d5ec570dac11)"><path d="M34.65-34.3L42.3-34.3 42.3 0 37.4 0 37.4-28.55 37.1-28.55 25.25 0 21.1 0 9.3-28.55 9.05-28.55 9.05 0 4.6 0 4.6-34.3 12.3-34.3 23.35-7.3 23.55-7.3 34.65-34.3ZM63.4-34.3Q67.7-34.3 70.9-32.43 74.1-30.55 75.85-27.08 77.6-23.6 77.6-18.9L77.6-18.9 77.6-15.4Q77.6-10.7 75.85-7.23 74.1-3.75 70.9-1.88 67.7 0 63.4 0L63.4 0 51.5 0 51.5-34.3 63.4-34.3ZM63.4-29.85L56.4-29.85 56.4-4.45 63.4-4.45Q67.85-4.45 70.27-7.23 72.7-10 72.7-15.4L72.7-15.4 72.7-18.9Q72.7-24.2 70.32-27.03 67.95-29.85 63.4-29.85L63.4-29.85Z" opacity="1" transform="matrix(1,0,0,1,0,0)" fill="black" class="wordmark-text-0" id="SvgjsPath1009" stroke-width="5" stroke="black" stroke-linejoin="round"></path></svg></g></svg></g></svg></g></svg></g></svg></g></svg></g></svg></g></mask><g mask="url(#b8c603d1-6612-4495-9755-ec2623c356f4)"><g><path d="M278.478 0h55.134v247.2h-35.314v-205.76h-2.162l-85.403 205.76h-29.909l-85.043-205.76h-1.802v205.76h-32.071v-247.2h55.494l79.637 194.589h1.442z" fill="url(#21a1c28b-3c3a-4990-8f42-7265131ff65d)" fill-rule="nonzero" stroke="none" stroke-width="1" stroke-linecap="butt" stroke-linejoin="miter" stroke-miterlimit="10" stroke-dasharray="" stroke-dashoffset="0" font-family="none" font-weight="none" font-size="none" text-anchor="none" style="mix-blend-mode: normal" data-fill-palette-color="tertiary"></path></g></g><g transform="matrix(1,0,0,1,26.040916030534362,37.08)"><svg viewBox="0 0 343.43816793893126 173.04" height="173.04" width="343.43816793893126"><g><svg viewBox="0 0 343.43816793893126 173.04" height="173.04" width="343.43816793893126"><g><svg viewBox="0 0 343.43816793893126 173.04" height="173.04" width="343.43816793893126"><g><svg viewBox="0 0 343.43816793893126 173.04" height="173.04" width="343.43816793893126"><g id="textblocktransform"><svg viewBox="0 0 343.43816793893126 173.04" height="173.04" width="343.43816793893126" id="textblock"><g><svg viewBox="0 0 343.43816793893126 173.04" height="173.04" width="343.43816793893126"><g transform="matrix(1,0,0,1,0,0)"><svg width="343.43816793893126" viewBox="1.5999999999999996 -37.3 79 40.3" height="173.04" data-palette-color="url(#24cf1022-3d58-4c0f-aa60-d5ec570dac11)"></svg></g></svg></g></svg></g></svg></g></svg></g></svg></g></svg></g></svg></g><defs></defs><mask id="95f25433-6c18-4809-a285-a59e33524e1b"><g id="SvgjsG1021"><svg viewBox="0 0 395.52 247.2" height="247.2" width="395.52"><g><svg></svg></g><g><svg viewBox="0 0 395.52 247.2" height="247.2" width="395.52"><mask id="SvgjsMask1020"><rect width="395.52" height="247.2" fill="black"></rect><g transform="matrix(1,0,0,1,26.040916030534362,37.08)" id="SvgjsG1019"><svg viewBox="0 0 343.43816793893126 173.04" height="173.04" width="343.43816793893126"><g><svg viewBox="0 0 343.43816793893126 173.04" height="173.04" width="343.43816793893126"><g><svg viewBox="0 0 343.43816793893126 173.04" height="173.04" width="343.43816793893126"><g><svg viewBox="0 0 343.43816793893126 173.04" height="173.04" width="343.43816793893126"><g id="SvgjsG1018"><svg viewBox="0 0 343.43816793893126 173.04" height="173.04" width="343.43816793893126" id="SvgjsSvg1017"><g><svg viewBox="0 0 343.43816793893126 173.04" height="173.04" width="343.43816793893126"><g transform="matrix(1,0,0,1,0,0)"><svg width="343.43816793893126" viewBox="1.5999999999999996 -37.3 79 40.3" height="173.04" data-palette-color="url(#24cf1022-3d58-4c0f-aa60-d5ec570dac11)"><path d="M34.65-34.3L42.3-34.3 42.3 0 37.4 0 37.4-28.55 37.1-28.55 25.25 0 21.1 0 9.3-28.55 9.05-28.55 9.05 0 4.6 0 4.6-34.3 12.3-34.3 23.35-7.3 23.55-7.3 34.65-34.3ZM63.4-34.3Q67.7-34.3 70.9-32.43 74.1-30.55 75.85-27.08 77.6-23.6 77.6-18.9L77.6-18.9 77.6-15.4Q77.6-10.7 75.85-7.23 74.1-3.75 70.9-1.88 67.7 0 63.4 0L63.4 0 51.5 0 51.5-34.3 63.4-34.3ZM63.4-29.85L56.4-29.85 56.4-4.45 63.4-4.45Q67.85-4.45 70.27-7.23 72.7-10 72.7-15.4L72.7-15.4 72.7-18.9Q72.7-24.2 70.32-27.03 67.95-29.85 63.4-29.85L63.4-29.85Z" opacity="1" transform="matrix(1,0,0,1,0,0)" fill="black" class="wordmark-text-0" id="SvgjsPath1016" stroke-width="5" stroke="black" stroke-linejoin="round"></path></svg></g></svg></g></svg></g></svg></g></svg></g></svg></g></svg></g></mask><g mask="url(#b8c603d1-6612-4495-9755-ec2623c356f4)"><g><path d="M278.478 0h55.134v247.2h-35.314v-205.76h-2.162l-85.403 205.76h-29.909l-85.043-205.76h-1.802v205.76h-32.071v-247.2h55.494l79.637 194.589h1.442z" fill="black" fill-rule="nonzero" stroke="none" stroke-width="1" stroke-linecap="butt" stroke-linejoin="miter" stroke-miterlimit="10" stroke-dasharray="" stroke-dashoffset="0" font-family="none" font-weight="none" font-size="none" text-anchor="none" style="mix-blend-mode: normal"></path></g></g><g transform="matrix(1,0,0,1,26.040916030534362,37.08)"><svg viewBox="0 0 343.43816793893126 173.04" height="173.04" width="343.43816793893126"><g><svg viewBox="0 0 343.43816793893126 173.04" height="173.04" width="343.43816793893126"><g><svg viewBox="0 0 343.43816793893126 173.04" height="173.04" width="343.43816793893126"><g><svg viewBox="0 0 343.43816793893126 173.04" height="173.04" width="343.43816793893126"><g id="SvgjsG1015"><svg viewBox="0 0 343.43816793893126 173.04" height="173.04" width="343.43816793893126" id="SvgjsSvg1014"><g><svg viewBox="0 0 343.43816793893126 173.04" height="173.04" width="343.43816793893126"><g transform="matrix(1,0,0,1,0,0)"><svg width="343.43816793893126" viewBox="1.5999999999999996 -37.3 79 40.3" height="173.04" data-palette-color="url(#24cf1022-3d58-4c0f-aa60-d5ec570dac11)"><path d="M34.65-34.3L42.3-34.3 42.3 0 37.4 0 37.4-28.55 37.1-28.55 25.25 0 21.1 0 9.3-28.55 9.05-28.55 9.05 0 4.6 0 4.6-34.3 12.3-34.3 23.35-7.3 23.55-7.3 34.65-34.3ZM63.4-34.3Q67.7-34.3 70.9-32.43 74.1-30.55 75.85-27.08 77.6-23.6 77.6-18.9L77.6-18.9 77.6-15.4Q77.6-10.7 75.85-7.23 74.1-3.75 70.9-1.88 67.7 0 63.4 0L63.4 0 51.5 0 51.5-34.3 63.4-34.3ZM63.4-29.85L56.4-29.85 56.4-4.45 63.4-4.45Q67.85-4.45 70.27-7.23 72.7-10 72.7-15.4L72.7-15.4 72.7-18.9Q72.7-24.2 70.32-27.03 67.95-29.85 63.4-29.85L63.4-29.85Z" opacity="1" transform="matrix(1,0,0,1,0,0)" fill="white" class="wordmark-text-0" id="SvgjsPath1013"></path></svg></g></svg></g></svg></g></svg></g></svg></g></svg></g></svg></g></svg></g><defs><mask></mask></defs></svg><rect width="395.52" height="247.2" fill="black" stroke="none" visibility="hidden"></rect></g></mask><linearGradient x1="0" x2="1" y1="0.5" y2="0.5" id="24cf1022-3d58-4c0f-aa60-d5ec570dac11"><stop stop-color="#f00b51" offset="0"></stop><stop stop-color="#730062" offset="1"></stop></linearGradient><rect width="395.52" height="247.2" fill="url(#24cf1022-3d58-4c0f-aa60-d5ec570dac11)" mask="url(#95f25433-6c18-4809-a285-a59e33524e1b)" data-fill-palette-color="primary"></rect><mask id="fb58ab3d-d492-41eb-85ce-b3721a8009d5"><g id="SvgjsG1074"><svg viewBox="0 0 395.52 247.2" height="247.2" width="395.52"><g><svg></svg></g><g><svg viewBox="0 0 395.52 247.2" height="247.2" width="395.52"><mask id="SvgjsMask1073"><rect width="395.52" height="247.2" fill="black"></rect><g transform="matrix(1,0,0,1,26.040916030534362,37.08)" id="SvgjsG1072"><svg viewBox="0 0 343.43816793893126 173.04" height="173.04" width="343.43816793893126"><g><svg viewBox="0 0 343.43816793893126 173.04" height="173.04" width="343.43816793893126"><g><svg viewBox="0 0 343.43816793893126 173.04" height="173.04" width="343.43816793893126"><g><svg viewBox="0 0 343.43816793893126 173.04" height="173.04" width="343.43816793893126"><g id="SvgjsG1071"><svg viewBox="0 0 343.43816793893126 173.04" height="173.04" width="343.43816793893126" id="SvgjsSvg1070"><g><svg viewBox="0 0 343.43816793893126 173.04" height="173.04" width="343.43816793893126"><g transform="matrix(1,0,0,1,0,0)"><svg width="343.43816793893126" viewBox="1.5999999999999996 -37.3 79 40.3" height="173.04" data-palette-color="url(#24cf1022-3d58-4c0f-aa60-d5ec570dac11)"><path d="M34.65-34.3L42.3-34.3 42.3 0 37.4 0 37.4-28.55 37.1-28.55 25.25 0 21.1 0 9.3-28.55 9.05-28.55 9.05 0 4.6 0 4.6-34.3 12.3-34.3 23.35-7.3 23.55-7.3 34.65-34.3ZM63.4-34.3Q67.7-34.3 70.9-32.43 74.1-30.55 75.85-27.08 77.6-23.6 77.6-18.9L77.6-18.9 77.6-15.4Q77.6-10.7 75.85-7.23 74.1-3.75 70.9-1.88 67.7 0 63.4 0L63.4 0 51.5 0 51.5-34.3 63.4-34.3ZM63.4-29.85L56.4-29.85 56.4-4.45 63.4-4.45Q67.85-4.45 70.27-7.23 72.7-10 72.7-15.4L72.7-15.4 72.7-18.9Q72.7-24.2 70.32-27.03 67.95-29.85 63.4-29.85L63.4-29.85Z" opacity="1" transform="matrix(1,0,0,1,0,0)" fill="black" class="wordmark-text-0" id="SvgjsPath1069" stroke-width="5" stroke="black" stroke-linejoin="round"></path></svg></g></svg></g></svg></g></svg></g></svg></g></svg></g></svg></g></mask><g mask="url(#b8c603d1-6612-4495-9755-ec2623c356f4)"><g><path d="M278.478 0h55.134v247.2h-35.314v-205.76h-2.162l-85.403 205.76h-29.909l-85.043-205.76h-1.802v205.76h-32.071v-247.2h55.494l79.637 194.589h1.442z" fill="white" fill-rule="nonzero" stroke="none" stroke-width="1" stroke-linecap="butt" stroke-linejoin="miter" stroke-miterlimit="10" stroke-dasharray="" stroke-dashoffset="0" font-family="none" font-weight="none" font-size="none" text-anchor="none" style="mix-blend-mode: normal"></path></g></g><g transform="matrix(1,0,0,1,26.040916030534362,37.08)"><svg viewBox="0 0 343.43816793893126 173.04" height="173.04" width="343.43816793893126"><g><svg viewBox="0 0 343.43816793893126 173.04" height="173.04" width="343.43816793893126"><g><svg viewBox="0 0 343.43816793893126 173.04" height="173.04" width="343.43816793893126"><g><svg viewBox="0 0 343.43816793893126 173.04" height="173.04" width="343.43816793893126"><g id="SvgjsG1068"><svg viewBox="0 0 343.43816793893126 173.04" height="173.04" width="343.43816793893126" id="SvgjsSvg1067"><g><svg viewBox="0 0 343.43816793893126 173.04" height="173.04" width="343.43816793893126"><g transform="matrix(1,0,0,1,0,0)"><svg width="343.43816793893126" viewBox="1.5999999999999996 -37.3 79 40.3" height="173.04" data-palette-color="url(#24cf1022-3d58-4c0f-aa60-d5ec570dac11)"></svg></g></svg></g></svg></g></svg></g></svg></g></svg></g></svg></g></svg></g><defs><mask></mask></defs><mask><g id="SvgjsG1066"><svg viewBox="0 0 395.52 247.2" height="247.2" width="395.52"><g><svg></svg></g><g><svg viewBox="0 0 395.52 247.2" height="247.2" width="395.52"><mask id="SvgjsMask1065"><rect width="395.52" height="247.2" fill="black"></rect><g transform="matrix(1,0,0,1,26.040916030534362,37.08)" id="SvgjsG1064"><svg viewBox="0 0 343.43816793893126 173.04" height="173.04" width="343.43816793893126"><g><svg viewBox="0 0 343.43816793893126 173.04" height="173.04" width="343.43816793893126"><g><svg viewBox="0 0 343.43816793893126 173.04" height="173.04" width="343.43816793893126"><g><svg viewBox="0 0 343.43816793893126 173.04" height="173.04" width="343.43816793893126"><g id="SvgjsG1063"><svg viewBox="0 0 343.43816793893126 173.04" height="173.04" width="343.43816793893126" id="SvgjsSvg1062"><g><svg viewBox="0 0 343.43816793893126 173.04" height="173.04" width="343.43816793893126"><g transform="matrix(1,0,0,1,0,0)"><svg width="343.43816793893126" viewBox="1.5999999999999996 -37.3 79 40.3" height="173.04" data-palette-color="url(#24cf1022-3d58-4c0f-aa60-d5ec570dac11)"><path d="M34.65-34.3L42.3-34.3 42.3 0 37.4 0 37.4-28.55 37.1-28.55 25.25 0 21.1 0 9.3-28.55 9.05-28.55 9.05 0 4.6 0 4.6-34.3 12.3-34.3 23.35-7.3 23.55-7.3 34.65-34.3ZM63.4-34.3Q67.7-34.3 70.9-32.43 74.1-30.55 75.85-27.08 77.6-23.6 77.6-18.9L77.6-18.9 77.6-15.4Q77.6-10.7 75.85-7.23 74.1-3.75 70.9-1.88 67.7 0 63.4 0L63.4 0 51.5 0 51.5-34.3 63.4-34.3ZM63.4-29.85L56.4-29.85 56.4-4.45 63.4-4.45Q67.85-4.45 70.27-7.23 72.7-10 72.7-15.4L72.7-15.4 72.7-18.9Q72.7-24.2 70.32-27.03 67.95-29.85 63.4-29.85L63.4-29.85Z" opacity="1" transform="matrix(1,0,0,1,0,0)" fill="black" class="wordmark-text-0" id="SvgjsPath1061" stroke-width="5" stroke="black" stroke-linejoin="round"></path></svg></g></svg></g></svg></g></svg></g></svg></g></svg></g></svg></g></mask><g mask="url(#b8c603d1-6612-4495-9755-ec2623c356f4)"><g><path d="M278.478 0h55.134v247.2h-35.314v-205.76h-2.162l-85.403 205.76h-29.909l-85.043-205.76h-1.802v205.76h-32.071v-247.2h55.494l79.637 194.589h1.442z" fill="black" fill-rule="nonzero" stroke="none" stroke-width="1" stroke-linecap="butt" stroke-linejoin="miter" stroke-miterlimit="10" stroke-dasharray="" stroke-dashoffset="0" font-family="none" font-weight="none" font-size="none" text-anchor="none" style="mix-blend-mode: normal"></path></g></g><g transform="matrix(1,0,0,1,26.040916030534362,37.08)"><svg viewBox="0 0 343.43816793893126 173.04" height="173.04" width="343.43816793893126"><g><svg viewBox="0 0 343.43816793893126 173.04" height="173.04" width="343.43816793893126"><g><svg viewBox="0 0 343.43816793893126 173.04" height="173.04" width="343.43816793893126"><g><svg viewBox="0 0 343.43816793893126 173.04" height="173.04" width="343.43816793893126"><g id="SvgjsG1060"><svg viewBox="0 0 343.43816793893126 173.04" height="173.04" width="343.43816793893126" id="SvgjsSvg1059"><g><svg viewBox="0 0 343.43816793893126 173.04" height="173.04" width="343.43816793893126"><g transform="matrix(1,0,0,1,0,0)"><svg width="343.43816793893126" viewBox="1.5999999999999996 -37.3 79 40.3" height="173.04" data-palette-color="url(#24cf1022-3d58-4c0f-aa60-d5ec570dac11)"><path d="M34.65-34.3L42.3-34.3 42.3 0 37.4 0 37.4-28.55 37.1-28.55 25.25 0 21.1 0 9.3-28.55 9.05-28.55 9.05 0 4.6 0 4.6-34.3 12.3-34.3 23.35-7.3 23.55-7.3 34.65-34.3ZM63.4-34.3Q67.7-34.3 70.9-32.43 74.1-30.55 75.85-27.08 77.6-23.6 77.6-18.9L77.6-18.9 77.6-15.4Q77.6-10.7 75.85-7.23 74.1-3.75 70.9-1.88 67.7 0 63.4 0L63.4 0 51.5 0 51.5-34.3 63.4-34.3ZM63.4-29.85L56.4-29.85 56.4-4.45 63.4-4.45Q67.85-4.45 70.27-7.23 72.7-10 72.7-15.4L72.7-15.4 72.7-18.9Q72.7-24.2 70.32-27.03 67.95-29.85 63.4-29.85L63.4-29.85Z" opacity="1" transform="matrix(1,0,0,1,0,0)" fill="black" class="wordmark-text-0" id="SvgjsPath1058"></path></svg></g></svg></g></svg></g></svg></g></svg></g></svg></g></svg></g></svg></g><defs><mask></mask></defs></svg><rect width="395.52" height="247.2" fill="black" stroke="none" visibility="hidden"></rect></g></mask></svg><rect width="395.52" height="247.2" fill="black" stroke="none" visibility="hidden"></rect></g></mask><linearGradient x1="0" x2="1" y1="0.5" y2="0.5" id="21a1c28b-3c3a-4990-8f42-7265131ff65d"><stop stop-color="#f00b51" offset="0"></stop><stop stop-color="#730062" offset="1"></stop></linearGradient></svg><rect width="395.52" height="247.2" fill="none" stroke="none" visibility="hidden"></rect></g></svg></g></svg>